<svg width="128" height="128" viewBox="0 0 128 128" fill="none" xmlns="http://www.w3.org/2000/svg">
  <g filter="url(#shadow)">
    <circle cx="64" cy="64" r="50" fill="#F7C009"/>
  </g>
  <circle cx="64" cy="44" r="12" fill="#FFFFFF"/>
  <path d="M44 100C44 84 52 70 64 70C76 70 84 84 84 100H44Z" fill="#FFFFFF"/>
  <path d="M52 76C52 86 56 92 64 92C72 92 76 86 76 76H52Z" fill="#F7C009" opacity="0.25"/>
  <rect x="82" y="62" width="18" height="6" rx="3" fill="#FFFFFF"/>
  <rect x="96" y="48" width="6" height="18" rx="3" fill="#FFFFFF"/>
  <path d="M88 68C88 72.4183 91.5817 76 96 76C100.418 76 104 72.4183 104 68H88Z" fill="#FFFFFF"/>
  <rect x="72" y="58" width="16" height="6" rx="3" fill="#FFFFFF"/>
  <rect x="72" y="58" width="6" height="14" rx="3" fill="#FFFFFF"/>
  <defs>
    <filter id="shadow" x="14" y="14" width="104" height="104" filterUnits="userSpaceOnUse" color-interpolation-filters="sRGB">
      <feFlood flood-opacity="0" result="BackgroundImageFix"/>
      <feColorMatrix in="SourceAlpha" type="matrix" values="0 0 0 0 0 0 0 0 0 0 0 0 0 0 0 0 0 0 127 0" result="hardAlpha"/>
      <feOffset dx="2" dy="2"/>
      <feGaussianBlur stdDeviation="1"/>
      <feComposite in2="hardAlpha" operator="out"/>
      <feColorMatrix type="matrix" values="0 0 0 0 0 0 0 0 0 0 0 0 0 0 0 0 0 0 0.1 0"/>
      <feBlend mode="normal" in2="BackgroundImageFix" result="effect1_dropShadow"/>
      <feBlend mode="normal" in="SourceGraphic" in2="effect1_dropShadow" result="shape"/>
    </filter>
  </defs>
</svg>
