<svg width="102" height="28" viewBox="0 0 102 28" fill="none" xmlns="http://www.w3.org/2000/svg">
<path d="M15.8909 17.5332L15.8254 17.4964C15.0833 17.0702 14.1564 17.2106 13.5502 17.8124C12.5158 18.8372 11.0919 19.4724 9.52187 19.4724C6.23743 19.4724 3.59107 16.699 3.8228 13.3806C4.01254 10.6824 6.13332 8.45734 8.83006 8.13971C10.6687 7.92405 12.363 8.58439 13.5468 9.75795C14.1547 10.3598 15.0799 10.5036 15.8221 10.0773L15.8909 10.0371C16.9606 9.42194 17.1385 7.97086 16.2671 7.09821C14.4888 5.32115 12.007 4.24121 9.27336 4.30975C4.20061 4.4368 0.0765891 8.58941 0.00102687 13.6431C-0.0762146 18.9425 4.21404 23.2623 9.52019 23.2623C12.1716 23.2623 14.5694 22.184 16.2956 20.4437C17.152 19.5811 16.9454 18.1401 15.8893 17.5332H15.8909Z" fill="#F7C009"/>
<path d="M91.658 6.20216C90.6069 6.20216 89.7539 7.0514 89.7539 8.09791V21.3665C89.7539 22.413 90.6069 23.2623 91.658 23.2623C92.7092 23.2623 93.5622 22.413 93.5622 21.3665V8.09791C93.5622 7.0514 92.7092 6.20216 91.658 6.20216Z" fill="#F7C009"/>
<path d="M100.096 6.20216C99.0447 6.20216 98.1917 7.0514 98.1917 8.09791V21.3665C98.1917 22.413 99.0447 23.2623 100.096 23.2623C101.147 23.2623 102 22.413 102 21.3665V8.09791C102 7.0514 101.147 6.20216 100.096 6.20216Z" fill="#F7C009"/>
<path d="M30.5265 4.30641C25.269 4.30641 21.0073 8.54929 21.0073 13.7835C21.0073 15.7645 21.6185 17.6018 22.6613 19.1214L21.7831 22.2977L25.4403 21.7912C26.9129 22.7206 28.6576 23.2606 30.5299 23.2606C35.7873 23.2606 40.049 19.0177 40.049 13.7835C40.049 8.54929 35.7873 4.30641 30.5299 4.30641H30.5265ZM30.5265 19.4708C27.3764 19.4708 24.814 16.9197 24.814 13.7835C24.814 10.6473 27.3764 8.09624 30.5265 8.09624C33.6766 8.09624 36.239 10.6473 36.239 13.7835C36.239 16.9197 33.6766 19.4708 30.5265 19.4708Z" fill="#F7C009"/>
<path d="M62.219 5.3362L59.0286 6.21052C57.4351 5.0169 55.452 4.30641 53.3026 4.30641C48.0452 4.30641 43.7835 8.54929 43.7835 13.7835C43.7835 19.0177 48.0452 23.2606 53.3026 23.2606C58.5601 23.2606 62.8218 19.0177 62.8218 13.7835C62.8218 12.1452 62.4037 10.6039 61.6699 9.25978L62.219 5.33453V5.3362ZM53.3026 19.4708C50.1525 19.4708 47.5901 16.9197 47.5901 13.7835C47.5901 10.6473 50.1525 8.09624 53.3026 8.09624C56.4528 8.09624 59.0152 10.6473 59.0152 13.7835C59.0152 16.9197 56.4528 19.4708 53.3026 19.4708Z" fill="#F7C009"/>
<path d="M91.658 0C90.6069 0 89.7539 0.849245 89.7539 1.89575C89.7539 2.94227 90.6069 3.79151 91.658 3.79151C92.7092 3.79151 93.5622 2.94227 93.5622 1.89575C93.5622 0.849245 92.7092 0 91.658 0Z" fill="#F7C009"/>
<path d="M100.096 3.79151C101.147 3.79151 102 2.94275 102 1.89575C102 0.848758 101.147 0 100.096 0C99.0442 0 98.1917 0.848758 98.1917 1.89575C98.1917 2.94275 99.0442 3.79151 100.096 3.79151Z" fill="#F7C009"/>
<path d="M75.6019 4.30641C72.9488 4.30641 70.5493 5.38635 68.8215 7.12998C67.9684 7.99092 68.1733 9.42695 69.2261 10.0321L69.3 10.0739C70.0422 10.5002 70.9674 10.3564 71.5753 9.75461C72.7591 8.58272 74.4534 7.92071 76.292 8.13636C78.9888 8.454 81.1112 10.6791 81.2993 13.3773C81.531 16.694 78.8863 19.4691 75.6002 19.4691C73.8237 19.4691 72.2335 18.6566 71.184 17.3861C70.8213 16.9464 70.2823 16.6907 69.7131 16.6907C68.6619 16.6907 67.8089 17.5399 67.8089 18.5864V26.1042C67.8089 27.1508 68.6619 28 69.7131 28C70.7642 28 71.6173 27.1508 71.6173 26.1042V22.3946C72.9606 23.0115 74.4718 23.3258 76.0637 23.2506C81.0558 23.0149 85.0539 18.8873 85.1194 13.9122C85.1899 8.61783 80.9013 4.30641 75.5985 4.30641H75.6019Z" fill="#F7C009"/>
</svg>
