<svg width="64" height="25" viewBox="0 0 64 25" fill="none" xmlns="http://www.w3.org/2000/svg">
<path d="M0.115435 9.15973C0.115435 7.8348 0.305003 6.6455 0.673606 5.59181C1.04221 4.53813 1.56879 3.64093 2.2428 2.91066C2.91682 2.18038 3.71722 1.60659 4.65452 1.22059C5.59183 0.834586 6.62392 0.636368 7.76132 0.636368C8.24577 0.636368 8.67756 0.667665 9.07776 0.740693C9.47796 0.813721 9.8255 0.897181 10.1309 1.01194C10.4363 1.1267 10.6891 1.23102 10.8997 1.36664C11.1103 1.50227 11.2683 1.61702 11.3842 1.73178C11.5527 1.8987 11.6685 2.06562 11.7422 2.23254C11.816 2.39946 11.8476 2.59768 11.8476 2.8272C11.8476 2.99412 11.816 3.14017 11.7633 3.27579C11.7106 3.41142 11.6369 3.52617 11.5316 3.6305C11.4263 3.73482 11.321 3.80785 11.1841 3.86001C11.0472 3.91218 10.8997 3.94347 10.7417 3.94347C10.5627 3.94347 10.3942 3.90174 10.2362 3.81828C10.0783 3.73482 9.87816 3.65136 9.65699 3.54704C9.43583 3.44271 9.17254 3.35925 8.8566 3.27579C8.54065 3.19233 8.15099 3.1506 7.6876 3.1506C7.09784 3.1506 6.5502 3.26536 6.03415 3.50531C5.51811 3.74526 5.06525 4.08953 4.66505 4.56943C4.26486 5.04932 3.95944 5.63354 3.72775 6.33252C3.49605 7.0315 3.38021 7.8661 3.38021 8.80503C3.38021 9.66049 3.48552 10.4116 3.70668 11.0689C3.92785 11.7261 4.23326 12.2791 4.63346 12.7277C5.03366 13.1762 5.49704 13.5101 6.04468 13.7396C6.59232 13.9691 7.18209 14.0839 7.83504 14.0839C8.2879 14.0839 8.67756 14.0421 8.99351 13.9691C9.30945 13.8961 9.58327 13.8022 9.81497 13.7083C10.0467 13.6144 10.2468 13.531 10.4047 13.4475C10.5627 13.364 10.7417 13.3327 10.9102 13.3327C11.0472 13.3327 11.1735 13.364 11.2894 13.4162C11.4052 13.4684 11.5105 13.5414 11.5948 13.6353C11.679 13.7292 11.7422 13.8439 11.7949 13.9691C11.8476 14.0943 11.8686 14.2404 11.8686 14.3864C11.8686 14.5951 11.837 14.7724 11.7633 14.9393C11.6896 15.1063 11.5737 15.2628 11.4263 15.4088C11.2894 15.5444 11.0998 15.6801 10.8576 15.8261C10.6154 15.9722 10.331 16.0974 9.98347 16.2225C9.63593 16.3477 9.24627 16.4416 8.79341 16.5251C8.34056 16.6085 7.84557 16.6398 7.2874 16.6398C6.22372 16.6398 5.24429 16.4625 4.35964 16.1182C3.47499 15.7739 2.71672 15.2732 2.08483 14.6264C1.45294 13.9796 0.968489 13.1971 0.620948 12.2791C0.273408 11.361 0.104904 10.3177 0.104904 9.15973H0.115435Z" fill="#FFC177"/>
<path d="M11.742 2.82679C11.742 2.60619 11.7113 2.42386 11.6454 2.2746C11.5777 2.12146 11.4705 1.96498 11.3101 1.80595C11.2023 1.69921 11.0514 1.5892 10.8421 1.45446C10.6419 1.32555 10.3987 1.22381 10.0934 1.10909C9.79654 0.997578 9.45601 0.915677 9.05876 0.843184C8.66652 0.771609 8.24083 0.740286 7.76083 0.740286C6.63627 0.740343 5.61823 0.936707 4.69496 1.31693C3.77271 1.69673 2.98448 2.26095 2.32023 2.98063C1.65696 3.69926 1.13787 4.58462 0.773409 5.62645C0.409288 6.66746 0.221129 7.84472 0.221121 9.15965V9.26357H0.211865C0.221672 10.3701 0.388025 11.3658 0.719928 12.2425C1.06297 13.1486 1.54012 13.9188 2.16081 14.5542C2.78184 15.1898 3.52706 15.6824 4.39773 16.0213C5.26901 16.3603 6.23599 16.5358 7.28773 16.5358C7.84204 16.5357 8.32983 16.5045 8.77387 16.4227C9.22384 16.3397 9.6074 16.2466 9.94735 16.1242C10.2915 16.0002 10.569 15.8781 10.803 15.737C11.0423 15.5927 11.224 15.4616 11.3522 15.3346C11.4926 15.1954 11.5998 15.0496 11.667 14.8975C11.7336 14.7466 11.7636 14.5837 11.7636 14.3861C11.7636 14.249 11.7434 14.1176 11.6978 14.0091C11.6476 13.8898 11.5894 13.7865 11.5158 13.7045C11.4426 13.623 11.3503 13.5578 11.2463 13.5109C11.1425 13.4642 11.0302 13.4366 10.91 13.4366C10.7538 13.4366 10.5931 13.4662 10.4544 13.5395C10.291 13.6258 10.0858 13.7108 9.85479 13.8044C9.61897 13.8999 9.33983 13.9958 9.01762 14.0703C8.69215 14.1455 8.29386 14.1884 7.83488 14.1884C7.16903 14.1884 6.56476 14.0713 6.00317 13.8359C5.44071 13.6002 4.96428 13.2566 4.55406 12.7968C4.14291 12.3358 3.83157 11.7693 3.60684 11.1015C3.38134 10.4312 3.27465 9.66863 3.27465 8.80511C3.27465 7.85823 3.39138 7.01195 3.62741 6.29988C3.86222 5.59149 4.17353 4.99479 4.58389 4.50271C4.99368 4.01136 5.45934 3.65721 5.9898 3.41056C6.52066 3.16381 7.08382 3.04583 7.68781 3.04583C8.15679 3.04584 8.55634 3.08869 8.88392 3.17522C9.20165 3.25916 9.47264 3.34488 9.70258 3.45335C9.91669 3.55434 10.1255 3.64177 10.2857 3.72639C10.4283 3.80172 10.5797 3.83941 10.7413 3.83948C10.8849 3.83948 11.0203 3.81117 11.1465 3.76307C11.2675 3.71698 11.3605 3.65201 11.4571 3.55625C11.5515 3.46271 11.6174 3.36076 11.6649 3.23838C11.7133 3.11376 11.742 2.97993 11.742 2.82679ZM11.9529 2.82679C11.9529 3.00735 11.9182 3.16623 11.8613 3.31276C11.8036 3.46138 11.7223 3.58901 11.6063 3.70397C11.4923 3.81684 11.3745 3.89942 11.2216 3.95766C11.0742 4.0138 10.9136 4.04731 10.7413 4.04731C10.5453 4.04725 10.36 4.00209 10.187 3.91079C10.0314 3.82857 9.84007 3.74836 9.61207 3.64081C9.39975 3.54066 9.14346 3.4599 8.82941 3.37694C8.52519 3.29658 8.14542 3.2547 7.68781 3.25468C7.11251 3.25468 6.58032 3.36712 6.07928 3.60006C5.57772 3.83327 5.13695 4.16783 4.74638 4.63618C4.3564 5.10386 4.05652 5.67558 3.82796 6.36508C3.60061 7.05096 3.48548 7.87413 3.48548 8.80511C3.48549 9.65231 3.58963 10.3922 3.80636 11.0363C4.02389 11.6826 4.32342 12.2221 4.71245 12.6582C5.10248 13.0954 5.5529 13.4201 6.08545 13.6434C6.61905 13.867 7.19494 13.9796 7.83488 13.9796C8.28147 13.9796 8.66291 13.9383 8.96928 13.8675C9.27884 13.796 9.5481 13.704 9.7756 13.6118C10.0078 13.5177 10.2032 13.4356 10.3557 13.3551C10.5326 13.2617 10.7295 13.2288 10.91 13.2287C11.0636 13.2287 11.2048 13.2639 11.3327 13.3214C11.4601 13.3788 11.578 13.46 11.6731 13.566C11.768 13.6717 11.8371 13.7978 11.8922 13.9287C11.9518 14.0703 11.9734 14.2313 11.9734 14.3861C11.9734 14.6058 11.94 14.7982 11.8593 14.9811C11.7791 15.1627 11.6546 15.3295 11.5003 15.4823C11.3548 15.6265 11.1571 15.7676 10.9121 15.9153C10.6617 16.0663 10.3702 16.1944 10.0193 16.3208C9.66434 16.4487 9.26849 16.5435 8.81295 16.6275C8.35153 16.7125 7.84937 16.7446 7.28773 16.7446C6.21222 16.7446 5.21958 16.5642 4.32163 16.2148C3.42339 15.8653 2.6522 15.3566 2.00963 14.6989C1.36664 14.0407 0.874487 13.2457 0.522462 12.3159C0.169635 11.3839 0 10.3275 0 9.15965V9.05573H0.0123416C0.022024 7.76252 0.210599 6.59566 0.573886 5.55717C0.946628 4.4918 1.48024 3.58187 2.16493 2.84003C2.8486 2.09931 3.66156 1.51655 4.61371 1.12437C5.56479 0.732701 6.61097 0.532508 7.76083 0.53245C8.24972 0.53245 8.68865 0.563926 9.09681 0.638406C9.49979 0.711942 9.85459 0.796559 10.1685 0.9145C10.4739 1.02926 10.7363 1.13694 10.9573 1.27923C11.1692 1.41564 11.3343 1.53553 11.4582 1.65822C11.6345 1.8329 11.759 2.01048 11.8387 2.19106C11.92 2.37536 11.9528 2.58885 11.9529 2.82679Z" fill="#FFC177"/>
<path d="M13.6066 8.83633C13.6066 7.63659 13.7752 6.56205 14.1227 5.61269C14.4702 4.66333 14.9547 3.86002 15.5866 3.20278C16.2185 2.54553 16.9767 2.04477 17.8614 1.69006C18.746 1.33536 19.7255 1.16844 20.7997 1.16844C21.8739 1.16844 22.7796 1.33536 23.6327 1.65876C24.4857 1.98217 25.2124 2.46207 25.8127 3.08802C26.413 3.71397 26.8869 4.47554 27.2134 5.37274C27.5399 6.26994 27.7084 7.28189 27.7084 8.41903C27.7084 9.61877 27.5399 10.6933 27.1923 11.6322C26.8448 12.5712 26.3603 13.3849 25.7284 14.0422C25.0965 14.6994 24.3488 15.2002 23.4642 15.5549C22.5795 15.9096 21.6106 16.0765 20.5364 16.0765C19.4622 16.0765 18.5565 15.9096 17.7034 15.5862C16.8504 15.2628 16.1237 14.7829 15.5234 14.1569C14.9231 13.531 14.4492 12.7694 14.1227 11.8722C13.7962 10.975 13.6277 9.96305 13.6277 8.8259L13.6066 8.83633ZM16.6397 8.61725C16.6397 9.46228 16.745 10.203 16.9557 10.8394C17.1663 11.4758 17.4612 12.0182 17.8193 12.4564C18.1773 12.8946 18.6091 13.218 19.1041 13.4371C19.5991 13.6562 20.1257 13.7709 20.6838 13.7709C21.242 13.7709 21.7686 13.6666 22.253 13.4475C22.7375 13.2284 23.1693 12.905 23.5273 12.4773C23.8854 12.0495 24.1698 11.5175 24.3804 10.8811C24.591 10.2447 24.6858 9.51445 24.6858 8.66941C24.6858 7.82438 24.5805 7.08367 24.3699 6.43686C24.1592 5.79004 23.8749 5.25798 23.5063 4.81982C23.1377 4.38165 22.7059 4.05824 22.2214 3.83916C21.737 3.62008 21.1999 3.50532 20.6417 3.50532C20.0835 3.50532 19.557 3.60964 19.0725 3.82873C18.5881 4.04781 18.1668 4.37122 17.8087 4.79895C17.4507 5.22668 17.1663 5.75874 16.9557 6.39513C16.745 7.03151 16.6397 7.77222 16.6397 8.60682V8.61725Z" fill="#FFC177"/>
<path d="M27.5506 8.41924C27.5506 7.29759 27.3845 6.30371 27.0652 5.426C26.7458 4.54814 26.2827 3.80524 25.6984 3.19585C25.1148 2.58736 24.408 2.12047 23.5766 1.80519C22.743 1.48915 21.8562 1.32534 20.7998 1.32533C19.7423 1.32533 18.7836 1.48899 17.9211 1.83473C17.0559 2.18164 16.316 2.67088 15.7006 3.31097C15.0859 3.95048 14.6121 4.73476 14.271 5.66644C13.9558 6.52784 13.7916 7.49845 13.7691 8.58021L13.7856 8.57308V8.82574C13.7856 9.94742 13.9517 10.9412 14.271 11.819C14.5905 12.6969 15.0534 13.4397 15.6379 14.0491C16.2215 14.6577 16.9281 15.1245 17.7596 15.4398C18.5932 15.7558 19.48 15.9196 20.5365 15.9196C21.5938 15.9196 22.5421 15.7561 23.4049 15.4102C24.2694 15.0636 24.9982 14.5746 25.614 13.934C26.2285 13.2948 26.7022 12.5007 27.0436 11.5785C27.3834 10.6605 27.5506 9.60472 27.5506 8.41924ZM16.4822 8.61688V8.6067C16.4823 7.7596 16.5882 7.00148 16.8052 6.34598C17.0208 5.69477 17.3146 5.14413 17.6876 4.69858C18.06 4.25394 18.5001 3.9152 19.0071 3.68589C19.5141 3.45671 20.0632 3.34871 20.6414 3.34867C21.2214 3.34867 21.7812 3.46841 22.2869 3.6971C22.7933 3.9261 23.2446 4.26413 23.628 4.71997C24.0116 5.17601 24.3041 5.7267 24.5197 6.38877C24.7364 7.05426 24.8437 7.8122 24.8437 8.66986C24.8437 9.52565 24.7473 10.273 24.53 10.9296C24.3144 11.5809 24.0217 12.1313 23.6486 12.577C23.2754 13.0228 22.8248 13.3608 22.3188 13.5896C21.8117 13.819 21.2619 13.9279 20.6835 13.9279C20.103 13.9278 19.5548 13.8073 19.04 13.5795C18.5226 13.3504 18.0707 13.012 17.6969 12.5545C17.3254 12.1 17.0211 11.5401 16.8052 10.8878C16.5883 10.2323 16.4822 9.47416 16.4822 8.61688ZM16.798 8.61688C16.798 9.44949 16.9012 10.1739 17.1055 10.791C17.3108 11.4112 17.5971 11.9363 17.9416 12.3579C18.2839 12.7768 18.6961 13.0851 19.1686 13.2942C19.6435 13.5044 20.1481 13.6141 20.6835 13.6141C21.2214 13.6141 21.7255 13.5141 22.1872 13.3054C22.65 13.0961 23.063 12.7868 23.4059 12.3773C23.7489 11.9675 24.0251 11.454 24.2307 10.8328C24.4346 10.2168 24.5279 9.50371 24.528 8.66986C24.528 7.83745 24.424 7.11267 24.2194 6.48454C24.0139 5.85341 23.7387 5.33975 23.3853 4.91966C23.0317 4.49927 22.6187 4.1905 22.1563 3.98134C21.6931 3.77187 21.1776 3.66144 20.6414 3.66144C20.1035 3.66148 19.5994 3.76237 19.1378 3.97116C18.6762 4.17992 18.274 4.48881 17.9303 4.89928C17.5873 5.30909 17.3111 5.82247 17.1055 6.44378C16.9012 7.06099 16.798 7.78469 16.798 8.6067V8.61688ZM27.8664 8.41924C27.8664 9.63306 27.696 10.7268 27.3408 11.6865C26.9871 12.642 26.4915 13.4748 25.8423 14.15C25.1945 14.8238 24.4278 15.3368 23.5231 15.6996C22.6167 16.063 21.6274 16.2334 20.5365 16.2334C19.4445 16.2334 18.5189 16.063 17.6465 15.7322C16.7722 15.4007 16.0253 14.9083 15.4085 14.2651C14.7924 13.6226 14.3073 12.8414 13.9738 11.9249C13.6647 11.0754 13.4981 10.1281 13.475 9.07636L13.4483 9.08961V8.83593C13.4483 7.62214 13.6189 6.52907 13.9738 5.55946C14.3278 4.59259 14.8234 3.76992 15.4723 3.09499C16.1206 2.42069 16.8979 1.90789 17.8018 1.54539C18.7084 1.18186 19.709 1.01154 20.7998 1.01154C21.8916 1.01155 22.8164 1.1821 23.6887 1.51279C24.5632 1.84433 25.3108 2.33656 25.9277 2.97986C26.5438 3.62234 27.0289 4.4036 27.3624 5.32005C27.6958 6.23653 27.8664 7.26692 27.8664 8.41924Z" fill="#FFC177"/>
<path d="M29.4353 8.83633C29.4353 7.63659 29.6038 6.56205 29.9513 5.61269C30.2989 4.66333 30.7833 3.86002 31.4152 3.20278C32.0471 2.54553 32.8054 2.04477 33.69 1.69006C34.5747 1.33536 35.5541 1.16844 36.6283 1.16844C37.7025 1.16844 38.6083 1.33536 39.4613 1.65876C40.3144 1.98217 41.041 2.46207 41.6413 3.08802C42.2416 3.71397 42.7155 4.47554 43.042 5.37274C43.3685 6.26994 43.537 7.28189 43.537 8.41903C43.537 9.61877 43.3685 10.6933 43.021 11.6322C42.6734 12.5712 42.189 13.3849 41.5571 14.0422C40.9252 14.6994 40.1775 15.2002 39.2928 15.5549C38.4082 15.9096 37.4393 16.0765 36.365 16.0765C35.2908 16.0765 34.3851 15.9096 33.5321 15.5862C32.679 15.2628 31.9523 14.7829 31.352 14.1569C30.7517 13.531 30.2778 12.7694 29.9513 11.8722C29.6249 10.975 29.4564 9.96305 29.4564 8.8259L29.4353 8.83633ZM32.4684 8.61725C32.4684 9.46228 32.5737 10.203 32.7843 10.8394C32.995 11.4758 33.2898 12.0182 33.6479 12.4564C34.006 12.8946 34.4378 13.218 34.9328 13.4371C35.4277 13.6562 35.9543 13.7709 36.5125 13.7709C37.0707 13.7709 37.5972 13.6666 38.0817 13.4475C38.5661 13.2284 38.9979 12.905 39.356 12.4773C39.7141 12.0495 39.9984 11.5175 40.209 10.8811C40.4197 10.2447 40.5145 9.51445 40.5145 8.66941C40.5145 7.82438 40.4091 7.08367 40.1985 6.43686C39.9879 5.79004 39.7035 5.25798 39.3349 4.81982C38.9663 4.38165 38.5345 4.05824 38.0501 3.83916C37.5656 3.62008 37.0285 3.50532 36.4704 3.50532C35.9122 3.50532 35.3856 3.60964 34.9012 3.82873C34.4167 4.04781 33.9954 4.37122 33.6374 4.79895C33.2793 5.22668 32.995 5.75874 32.7843 6.39513C32.5737 7.03151 32.4684 7.77222 32.4684 8.60682V8.61725Z" fill="#FFC177"/>
<path d="M43.3793 8.41924C43.3793 7.29759 43.2132 6.30371 42.8938 5.426C42.5744 4.54814 42.1114 3.80524 41.527 3.19585C40.9435 2.58736 40.2367 2.12047 39.4053 1.80519C38.5717 1.48915 37.6848 1.32534 36.6284 1.32533C35.571 1.32533 34.6122 1.48899 33.7497 1.83473C32.8845 2.18164 32.1447 2.67088 31.5293 3.31097C30.9145 3.95048 30.4408 4.73476 30.0997 5.66644C29.7844 6.52784 29.6203 7.49845 29.5978 8.58021L29.6143 8.57308V8.82574C29.6143 9.94742 29.7803 10.9412 30.0997 11.819C30.4191 12.6969 30.8821 13.4397 31.4665 14.0491C32.0501 14.6577 32.7568 15.1245 33.5883 15.4398C34.4219 15.7558 35.3087 15.9196 36.3651 15.9196C37.4225 15.9196 38.3708 15.7561 39.2335 15.4102C40.0981 15.0636 40.8268 14.5746 41.4427 13.934C42.0571 13.2948 42.5309 12.5007 42.8722 11.5785C43.2121 10.6605 43.3793 9.60472 43.3793 8.41924ZM32.3109 8.61688V8.6067C32.3109 7.7596 32.4169 7.00148 32.6338 6.34598C32.8494 5.69477 33.1433 5.14413 33.5163 4.69858C33.8886 4.25394 34.3287 3.9152 34.8358 3.68589C35.3427 3.45671 35.8919 3.34871 36.47 3.34867C37.0501 3.34867 37.6099 3.46841 38.1156 3.6971C38.622 3.9261 39.0732 4.26413 39.4567 4.71997C39.8402 5.17601 40.1328 5.7267 40.3484 6.38877C40.5651 7.05426 40.6724 7.8122 40.6724 8.66986C40.6723 9.52565 40.5759 10.273 40.3587 10.9296C40.1431 11.5809 39.8503 12.1313 39.4773 12.577C39.1041 13.0228 38.6535 13.3608 38.1475 13.5896C37.6403 13.819 37.0906 13.9279 36.5122 13.9279C35.9316 13.9278 35.3835 13.8073 34.8687 13.5795C34.3512 13.3504 33.8994 13.012 33.5255 12.5545C33.154 12.1 32.8498 11.5401 32.6338 10.8878C32.4169 10.2323 32.3109 9.47416 32.3109 8.61688ZM32.6266 8.61688C32.6266 9.44949 32.7299 10.1739 32.9342 10.791C33.1395 11.4112 33.4258 11.9363 33.7703 12.3579C34.1126 12.7768 34.5248 13.0851 34.9973 13.2942C35.4722 13.5044 35.9767 13.6141 36.5122 13.6141C37.05 13.6141 37.5541 13.5141 38.0158 13.3054C38.4786 13.0961 38.8917 12.7868 39.2346 12.3773C39.5776 11.9675 39.8537 11.454 40.0594 10.8328C40.2633 10.2168 40.3566 9.50371 40.3566 8.66986C40.3566 7.83745 40.2526 7.11267 40.0481 6.48454C39.8425 5.85341 39.5674 5.33975 39.214 4.91966C38.8603 4.49928 38.4473 4.1905 37.985 3.98134C37.5218 3.77187 37.0063 3.66144 36.47 3.66144C35.9322 3.66148 35.4281 3.76237 34.9664 3.97116C34.5049 4.17992 34.1026 4.48881 33.759 4.89928C33.416 5.30909 33.1398 5.82247 32.9342 6.44378C32.7299 7.06099 32.6266 7.78469 32.6266 8.6067V8.61688ZM43.695 8.41924C43.695 9.63306 43.5247 10.7268 43.1695 11.6865C42.8158 12.642 42.3201 13.4748 41.671 14.15C41.0231 14.8238 40.2565 15.3368 39.3518 15.6996C38.4454 16.063 37.4561 16.2334 36.3651 16.2334C35.2732 16.2334 34.3476 16.063 33.4751 15.7322C32.6009 15.4007 31.854 14.9083 31.2372 14.2651C30.621 13.6226 30.136 12.8414 29.8025 11.9249C29.4934 11.0754 29.3267 10.1281 29.3037 9.07636L29.2769 9.08961V8.83593C29.277 7.62214 29.4475 6.52907 29.8025 5.55946C30.1564 4.59259 30.6521 3.76992 31.3009 3.09499C31.9492 2.42069 32.7265 1.90789 33.6304 1.54539C34.5371 1.18186 35.5376 1.01154 36.6284 1.01154C37.7202 1.01155 38.645 1.1821 39.5174 1.51279C40.3919 1.84433 41.1394 2.33656 41.7564 2.97986C42.3725 3.62234 42.8576 4.4036 43.1911 5.32005C43.5245 6.23653 43.695 7.26692 43.695 8.41924Z" fill="#FFC177"/>
<path d="M49.8982 16.6398C49.8982 17.1197 49.7613 17.4953 49.4875 17.7561C49.2137 18.0169 48.7819 18.1525 48.1816 18.1525C47.5813 18.1525 47.16 18.0274 46.8862 17.7561C46.6124 17.4849 46.4755 17.1197 46.4755 16.6398V2.76459C46.4755 2.27426 46.6124 1.89869 46.8862 1.61701C47.16 1.33533 47.5392 1.21014 48.0447 1.21014H51.6149C52.7102 1.21014 53.658 1.33533 54.4689 1.58571C55.2798 1.83609 55.9539 2.18037 56.491 2.6394C57.0281 3.09843 57.4283 3.63049 57.6916 4.26687C57.9548 4.90325 58.0918 5.60223 58.0918 6.37424C58.0918 7.2297 57.9548 8.00171 57.6705 8.70069C57.3861 9.39967 56.9649 9.98389 56.4067 10.4742C55.8485 10.9645 55.1429 11.3401 54.3004 11.6114C53.4579 11.8826 52.4785 12.0182 51.3621 12.0182H49.9193V16.6503L49.8982 16.6398ZM51.5306 9.43096C52.5101 9.43096 53.2683 9.18058 53.8054 8.66939C54.3425 8.1582 54.6058 7.45922 54.6058 6.57246C54.6058 5.68569 54.3531 4.99715 53.837 4.52768C53.321 4.05822 52.5311 3.80784 51.4464 3.80784H49.9088V9.43096H51.5412H51.5306Z" fill="#FFC177"/>
<path d="M59.977 1.90915C59.977 1.6379 60.0296 1.38752 60.1244 1.15801C60.2192 0.928494 60.3561 0.719843 60.5351 0.552923C60.7142 0.386003 60.9248 0.25038 61.1776 0.146055C61.4303 0.04173 61.7041 0 62.0095 0C62.2939 0 62.5677 0.0521626 62.8099 0.146055C63.0522 0.239948 63.2628 0.37557 63.4418 0.542491C63.6209 0.709411 63.7578 0.907629 63.8526 1.12671C63.9473 1.34579 64 1.59617 64 1.85699C64 2.1178 63.9473 2.37861 63.8526 2.60813C63.7578 2.83764 63.6103 3.04629 63.4313 3.21321C63.2523 3.38013 63.0311 3.51576 62.7889 3.62008C62.5467 3.72441 62.2623 3.76614 61.9569 3.76614C61.6725 3.76614 61.3987 3.71397 61.1565 3.62008C60.9143 3.52619 60.7036 3.39057 60.5246 3.22365C60.3456 3.05673 60.2087 2.85851 60.1139 2.63943C60.0191 2.42034 59.9664 2.16996 59.9664 1.90915H59.977ZM60.3034 6.95849C60.3034 6.48902 60.4403 6.13432 60.7142 5.8735C60.988 5.61269 61.4092 5.4875 61.978 5.4875C62.5467 5.4875 62.9679 5.61269 63.2417 5.8735C63.5156 6.13432 63.6525 6.48902 63.6525 6.95849V16.6294C63.6525 17.0989 63.5156 17.4536 63.2417 17.7144C62.9679 17.9752 62.5467 18.1004 61.978 18.1004C61.4092 18.1004 60.988 17.9752 60.7142 17.7144C60.4403 17.4536 60.3034 17.0989 60.3034 16.6294V6.95849Z" fill="#FFC177"/>
<path d="M26.929 17.7666C29.3618 23.0141 35.7229 25.1006 41.1677 24.9963C46.9811 24.8815 52.647 22.4299 56.6385 18.2465L54.4374 16.9737C54.0898 18.7889 54.0583 20.8233 55.8802 21.8874C57.7022 22.9515 59.9875 22.6803 61.7779 21.7518C63.2733 20.9693 61.9464 18.7159 60.4509 19.4984C59.5662 19.9574 58.5236 20.1347 57.5547 19.78C56.5858 19.4253 56.8175 18.4968 56.9755 17.6727C57.2072 16.4729 55.7433 15.3879 54.7744 16.3999C51.3411 19.9887 46.5703 22.1795 41.5679 22.3673C36.8603 22.5551 31.3102 21.0215 29.1933 16.4416C28.4877 14.9185 26.2129 16.2434 26.9185 17.7561L26.929 17.7666Z" fill="#FFC177"/>
</svg>
