<svg width="20" height="24" viewBox="0 0 20 24" fill="none" xmlns="http://www.w3.org/2000/svg">
<g clip-path="url(#clip0_180_14)">
<path d="M0.505371 9.30111C0.957024 10.0926 1.21511 11.0138 1.21511 11.9954C1.21511 12.9771 0.957024 13.8965 0.505371 14.6897L3.83844 16.6478C4.61949 15.2791 5.06605 13.6891 5.06605 11.9954C5.06605 10.3018 4.61949 8.71178 3.83844 7.34302L0.505371 9.30111Z" fill="#F7C009"/>
<path d="M6.75549 5.62876C7.8235 7.50217 8.43476 9.67802 8.43476 11.9956C8.43476 14.3131 7.8235 16.489 6.75549 18.3624L10.0903 20.3222C11.486 17.8716 12.2857 15.0269 12.2857 11.9956C12.2857 8.96426 11.486 6.11958 10.0903 3.66895L6.75549 5.62876Z" fill="#F7C009"/>
<path d="M16.3404 -0.00537109L13.0073 1.95445C14.69 4.90973 15.6544 8.34028 15.6544 11.9955C15.6544 15.6507 14.6917 19.0795 13.0073 22.0348L16.3404 23.9946C18.3525 20.4621 19.5054 16.3627 19.5054 11.9955C19.5054 7.62824 18.3525 3.52714 16.3404 -0.00537109Z" fill="#F7C009"/>
</g>
<defs>
<clipPath id="clip0_180_14">
<rect width="19" height="24" fill="white" transform="translate(0.505371 -0.00537109)"/>
</clipPath>
</defs>
</svg>
